HIERARCHY
ROOT Hips
{
	OFFSET 0.000000 0.000000 0.000000
	CHANNELS 6 Xposition Yposition Zposition Zrotation Yrotation Xrotation 
	JOINT LHipJoint
	{
		OFFSET 0.000000 0.000000 0.000000
		CHANNELS 3 Zrotation Yrotation Xrotation
		JOINT LeftUpLeg
		{
			OFFSET 1.363060 -1.794630 0.839290
			CHANNELS 3 Zrotation Yrotation Xrotation
			JOINT LeftLeg
			{
				OFFSET 2.448110 -6.726130 0.000000
				CHANNELS 3 Zrotation Yrotation Xrotation
				JOINT LeftFoot
				{
					OFFSET 2.562200 -7.039590 0.000000
					CHANNELS 3 Zrotation Yrotation Xrotation
					JOINT LeftToeBase
					{
						OFFSET 0.157640 -0.433110 2.322550
						CHANNELS 3 Zrotation Yrotation Xrotation
						End Site
						{
							OFFSET 0.000000 0.000000 0.000000
						}
					}
				}
			}
		}
	}
	JOINT RHipJoint
	{
		OFFSET 0.000000 0.000000 0.000000
		CHANNELS 3 Zrotation Yrotation Xrotation
		JOINT RightUpLeg
		{
			OFFSET -1.305520 -1.794630 0.839290
			CHANNELS 3 Zrotation Yrotation Xrotation
			JOINT RightLeg
			{
				OFFSET -2.542530 -6.985550 0.000000
				CHANNELS 3 Zrotation Yrotation Xrotation
				JOINT RightFoot
				{
					OFFSET -2.568260 -7.056230 0.000000
					CHANNELS 3 Zrotation Yrotation Xrotation
					JOINT RightToeBase
					{
						OFFSET -0.164730 -0.452590 2.363150
						CHANNELS 3 Zrotation Yrotation Xrotation
						End Site
						{
							OFFSET 0.000000 0.000000 0.000000
						}
					}
				}
			}
		}
	}
	JOINT LowerBack
	{
		OFFSET 0.000000 0.000000 0.000000
		CHANNELS 3 Zrotation Yrotation Xrotation
		JOINT Spine
		{
			OFFSET 0.028270 2.035590 -0.193380
			CHANNELS 3 Zrotation Yrotation Xrotation
			JOINT Spine1
			{
				OFFSET 0.056720 2.048850 -0.042750
				CHANNELS 3 Zrotation Yrotation Xrotation
				JOINT Neck
				{
					OFFSET 0.000000 0.000000 0.000000
					CHANNELS 3 Zrotation Yrotation Xrotation
					JOINT Neck1
					{
						OFFSET -0.054170 1.746240 0.172020
						CHANNELS 3 Zrotation Yrotation Xrotation
						JOINT Head
						{
							OFFSET 0.104070 1.761360 -0.123970
							CHANNELS 3 Zrotation Yrotation Xrotation
							End Site
							{
								OFFSET 0.000000 0.000000 0.000000
							}
						}
					}
				}
				JOINT LeftShoulder
				{
					OFFSET 0.000000 0.000000 0.000000
					CHANNELS 3 Zrotation Yrotation Xrotation
					JOINT LeftArm
					{
						OFFSET 3.362410 1.200890 -0.311210
						CHANNELS 3 Zrotation Yrotation Xrotation
						JOINT LeftForeArm
						{
							OFFSET 4.983000 -0.000000 -0.000000
							CHANNELS 3 Zrotation Yrotation Xrotation
							JOINT LeftHand
							{
								OFFSET 3.483560 -0.000000 -0.000000
								CHANNELS 3 Zrotation Yrotation Xrotation
								JOINT LeftFingerBase
								{
									OFFSET 0.000000 0.000000 0.000000
									CHANNELS 3 Zrotation Yrotation Xrotation
									JOINT LeftHandIndex1
									{
										OFFSET 0.715260 -0.000000 -0.000000
										CHANNELS 3 Zrotation Yrotation Xrotation
										End Site
										{
											OFFSET 0.000000 0.000000 0.000000
										}
									}
								}
								JOINT LThumb
								{
									OFFSET 0.000000 0.000000 0.000000
									CHANNELS 3 Zrotation Yrotation Xrotation
									End Site
									{
										OFFSET 0.000000 0.000000 0.000000
									}
								}
							}
						}
					}
				}
				JOINT RightShoulder
				{
					OFFSET 0.000000 0.000000 0.000000
					CHANNELS 3 Zrotation Yrotation Xrotation
					JOINT RightArm
					{
						OFFSET -3.136600 1.374050 -0.404650
						CHANNELS 3 Zrotation Yrotation Xrotation
						JOINT RightForeArm
						{
							OFFSET -5.241900 -0.000000 -0.000000
							CHANNELS 3 Zrotation Yrotation Xrotation
							JOINT RightHand
							{
								OFFSET -3.444170 -0.000000 -0.000000
								CHANNELS 3 Zrotation Yrotation Xrotation
								JOINT RightFingerBase
								{
									OFFSET 0.000000 0.000000 0.000000
									CHANNELS 3 Zrotation Yrotation Xrotation
									JOINT RightHandIndex1
									{
										OFFSET -0.622530 -0.000000 -0.000000
										CHANNELS 3 Zrotation Yrotation Xrotation
										End Site
										{
											OFFSET 0.000000 0.000000 0.000000
										}
									}
								}
								JOINT RThumb
								{
									OFFSET 0.000000 0.000000 0.000000
									CHANNELS 3 Zrotation Yrotation Xrotation
									End Site
									{
										OFFSET 0.000000 0.000000 0.000000
									}
								}
							}
						}
					}
				}
			}
		}
	}
}
MOTION
Frames: 8
Frame Time: 0.008333
11.515172 17.620080 -17.732162 -6.723448 -13.525163 5.245809 -4.206582 -2.965681 -1.780996 -3.206680 -0.858766 -29.352275 0.626256 9.348269 24.688483 -1.492249 9.683922 12.903351 0.010800 -0.671800 -1.846100 2.084027 0.442883 1.078097 23.478521 1.348488 13.361280 -0.098281 -6.055909 16.910958 -0.557593 -0.127808 9.944943 -0.322800 3.651700 -10.098800 6.644716 4.022532 3.558086 0.591008 4.901857 -3.142844 -0.547246 3.052811 0.508782 -5.396079 -1.447961 -11.509792 3.094670 -1.261277 12.901860 2.493200 -1.094500 9.007700 -6.348535 2.824153 -2.151164 -83.015005 3.219482 13.727639 9.785316 -21.591619 -2.049225 0.724933 -2.011951 19.145484 -2.066023 33.027186 -1.923400 -7.125000 0.000000 0.000000 -41.379600 59.583300 -16.421900 1.999592 -1.877857 -0.925596 84.128878 0.595732 7.882227 -25.714141 37.047061 -9.179533 0.171985 -0.412377 -19.473982 -17.460694 19.337687 -6.092000 7.125000 0.000000 0.000000 7.002600 -9.420900 5.806700 
11.542733 17.650602 -17.518002 -6.001894 -13.460540 4.838528 -4.331761 -2.944787 -1.620895 -4.179004 -0.670394 -28.860924 0.620369 9.426945 25.022022 -1.197152 8.779218 13.327850 0.000000 0.045500 0.124900 2.128219 0.484758 1.007789 22.486573 1.462499 12.004705 -0.526643 -7.286368 20.421341 -0.523406 -0.893180 11.631787 -0.157000 2.553300 -7.037500 5.918217 3.958679 3.512961 0.511855 4.808167 -3.127391 -0.440661 2.993000 0.600338 -6.028059 -1.612803 -11.719217 3.679883 -1.377207 13.379503 2.933400 -1.165700 9.359100 -6.447184 2.849319 -2.170918 -82.732288 3.113056 14.270086 9.537896 -21.210038 -1.950489 0.730458 -2.005324 19.040725 -2.141153 32.737334 -1.951800 -7.125000 0.000000 0.000000 -41.130100 59.339700 -16.055800 1.927087 -1.858458 -0.935336 84.521568 0.270871 6.705216 -25.120230 36.485686 -8.836559 0.169890 -0.402483 -19.676020 -16.796590 18.814219 -5.697200 7.125000 0.000000 0.000000 7.406400 -10.050900 6.052300 
11.580298 17.660912 -17.313845 -5.998573 -13.297655 4.672250 -4.355072 -2.919453 -1.537477 -4.459169 -0.607698 -28.580674 0.751607 9.657831 25.767974 -1.216590 8.693508 12.921782 0.000100 0.070800 0.194600 2.120908 0.514416 0.937435 22.295123 1.581867 10.563773 -1.001844 -8.415338 23.711339 -0.513852 -1.696332 13.505396 -0.055600 1.521000 -4.183700 6.088888 3.880703 3.538214 0.519870 4.711002 -3.121309 -0.554774 2.939424 0.800621 -6.004513 -1.726959 -12.721151 3.370507 -1.482949 14.236782 2.749900 -1.276700 10.090700 -6.443386 2.799043 -2.194207 -82.772002 2.777297 14.158133 9.340636 -20.859473 -1.868273 0.728829 -1.996206 19.463178 -2.391283 32.417504 -2.079900 -7.125000 0.000000 0.000000 -41.009200 59.019100 -15.674800 1.962127 -1.893601 -1.002734 84.789181 0.043869 5.457214 -24.636871 36.003688 -8.562348 0.183860 -0.393457 -19.993214 -17.040031 18.191633 -5.608500 7.125000 0.000000 0.000000 7.211700 -10.663000 5.800100 
11.614801 17.661422 -17.121733 -6.450625 -12.988972 4.568453 -4.334210 -2.877640 -1.462274 -4.306763 -0.458234 -28.308413 0.883205 9.844270 26.383999 -1.232851 8.637632 12.625853 0.002200 -0.302200 -0.830400 2.087147 0.542210 0.855387 22.656382 1.627407 9.218889 -1.492071 -9.400133 26.624864 -0.519703 -2.858807 15.899967 -0.003200 0.366300 -1.006400 6.667638 3.727902 3.708338 0.585265 4.541957 -3.121107 -0.597116 2.846517 0.767475 -6.255848 -1.689856 -12.782180 3.574758 -1.382375 14.316639 2.940000 -1.240600 10.163200 -6.454519 2.794158 -2.192100 -82.934504 2.666641 13.844018 9.295815 -20.747184 -1.839017 0.729031 -1.998704 19.975379 -2.740498 32.473363 -2.287100 -7.125000 0.000000 0.000000 -41.392600 58.966900 -15.801800 1.955822 -1.882817 -1.011850 84.983690 -0.323018 4.081197 -24.127344 35.496945 -8.278249 0.182926 -0.392008 -20.232124 -16.756826 18.270535 -5.531600 7.125000 0.000000 0.000000 7.401000 -10.617400 5.962000 
11.646139 17.676734 -16.926252 -6.731991 -12.696609 4.405717 -4.325862 -2.838524 -1.362373 -4.305881 -0.380058 -27.965775 1.001767 10.036808 27.074241 -1.087543 7.970494 12.195480 0.000400 -0.132600 -0.364300 2.067310 0.563076 0.771688 22.858166 1.867312 7.927359 -2.035958 -10.341270 29.444745 -0.539916 -4.449139 18.617051 -0.023400 -0.986900 2.712800 7.059820 3.579747 3.870697 0.614746 4.378309 -3.133890 -0.784575 2.761710 0.637004 -5.879749 -1.612609 -12.655001 3.307461 -1.355250 14.355735 2.719100 -1.223700 10.132500 -6.432867 2.758011 -2.189329 -82.782637 2.736320 14.030341 9.298553 -20.740636 -1.828594 0.721102 -2.008370 20.001730 -2.621081 32.727740 -2.233100 -7.125000 0.000000 0.000000 -41.561800 59.198700 -16.118700 1.975775 -1.886475 -1.015090 85.305351 -0.914204 2.829949 -23.702406 35.071327 -8.042554 0.173627 -0.394886 -20.515440 -16.144578 18.613214 -5.408800 7.125000 0.000000 0.000000 7.821000 -10.340000 6.351200 
11.680641 17.693475 -16.721687 -6.905499 -12.666374 4.252285 -4.337022 -2.788764 -1.220929 -4.435301 -0.202037 -27.535908 1.084413 10.185105 27.658167 -0.851015 6.956947 11.649705 0.001400 0.240200 0.659900 2.053812 0.580602 0.686324 22.906571 2.457108 6.722847 -2.631868 -11.249473 32.249660 -0.625985 -5.911281 21.241895 -0.095400 -1.991700 5.482600 7.375443 3.432908 3.994651 0.631845 4.220248 -3.180161 -0.886267 2.674814 0.369005 -6.150642 -1.486670 -12.341953 3.601509 -1.147385 14.610578 2.982400 -1.144500 10.198100 -6.475979 2.750874 -2.220109 -82.600345 3.065249 14.272558 9.321264 -20.770529 -1.833750 0.716067 -2.013163 19.763440 -2.329404 32.774816 -2.065600 -7.125000 0.000000 0.000000 -41.347600 59.316600 -16.136300 1.936019 -1.845947 -1.016336 85.558735 -1.635776 1.787635 -23.342230 34.689348 -7.843274 0.186620 -0.390125 -20.966761 -16.482845 18.145658 -5.401300 7.125000 0.000000 0.000000 7.575600 -10.777400 6.080200 
11.713306 17.705520 -16.525798 -6.665941 -12.802108 3.996350 -4.401485 -2.740076 -1.066596 -4.939730 0.001266 -26.996933 1.129177 10.296676 28.080111 -0.738845 6.345167 10.868731 0.007600 0.563400 1.548300 2.053393 0.606586 0.590146 22.463586 2.953878 5.478849 -3.269306 -12.118969 35.081236 -0.839915 -6.734803 23.740285 -0.092800 -1.964800 5.408400 7.185052 3.332392 4.144810 0.621905 4.109536 -3.176189 -0.693866 2.603010 0.314656 -7.249996 -1.471505 -12.317481 4.516710 -0.924636 14.953205 3.777500 -1.082100 10.423200 -6.571957 2.792939 -2.259611 -82.515715 3.200737 14.668053 9.450360 -20.988996 -1.898898 0.741306 -2.006986 19.322201 -2.602408 32.597166 -2.215100 -7.125000 0.000000 0.000000 -41.413100 59.110100 -15.957500 1.844629 -1.793518 -1.013925 85.693536 -1.850693 0.451594 -22.777345 34.093459 -7.535075 0.195174 -0.378141 -21.106363 -16.445463 17.397503 -5.181100 7.125000 0.000000 0.000000 7.565000 -11.555200 5.949700 
11.739336 17.722261 -16.336341 -5.970789 -12.926509 3.677047 -4.514713 -2.710458 -0.923606 -5.844862 0.110246 -26.393128 1.129772 10.359536 28.301952 -0.781630 6.262943 9.906460 0.007900 0.573500 1.576000 2.078839 0.636795 0.489336 21.551757 3.385815 4.136612 -3.950974 -12.958657 37.957588 -1.064539 -7.226641 25.734894 -0.083600 -1.864500 5.131200 6.500887 3.300366 4.190028 0.548703 4.052419 -3.116812 -0.644833 2.565995 0.508200 -7.288090 -1.488299 -12.416037 4.576430 -0.945828 14.999673 3.812000 -1.087100 10.462000 -6.589410 2.802205 -2.251246 -82.239056 3.038715 15.130131 9.624524 -21.315770 -1.995001 0.770912 -1.998644 18.996293 -3.067187 32.370734 -2.471000 -7.125000 0.000000 0.000000 -41.604100 58.815100 -15.745400 1.818123 -1.817935 -1.003888 85.997732 -1.821141 -1.025299 -22.160059 33.465568 -7.204752 0.166259 -0.371117 -21.328757 -14.470080 17.509642 -4.548400 7.125000 0.000000 0.000000 8.882400 -11.671000 6.988500 
